<?xml version="1.0" encoding="UTF-8"?>
<svg id="Vrstva_2" xmlns="http://www.w3.org/2000/svg" version="1.1" viewBox="0 0 257.7 32.7">
  <!-- Generator: Adobe Illustrator 29.5.0, SVG Export Plug-In . SVG Version: 2.1.0 Build 137)  -->
  <defs>
    <style>
      .st0 {
        fill: #8dbe22;
      }

      .st1 {
        fill: #3c3c3b;
      }
    </style>
  </defs>
  <path class="st0" d="M251.1,16.7c-1.1,4.1-4.5,7.2-8.6,7.2s-5.8-3.1-4.7-7.2c1.1-4.1,4.5-7.2,8.5-7.2s5.8,3.1,4.7,7.2M233.1,16.7c-1.8,6.6,1.8,11.3,8.4,11.3s12.7-4.7,14.4-11.3c1.8-6.6-1.8-11.3-8.4-11.3s-12.6,4.7-14.4,11.3M226.1,12.8c-.5,1.8-2.2,3-4.1,3h-4.9l1.6-6h4.9c1.9,0,3,1.2,2.5,3M221.6,27.6h5.3l-2.7-8.3c2.5-.6,5.5-2.6,6.5-6.5,1.1-4.1-.9-7-5.4-7h-10.2l-5.9,21.8h4.6l2.1-7.8h3.4l2.2,7.8h0ZM194,27.6h4.7l4.8-17.7h6.4l1.1-4.1h-17.4l-1.1,4.1h6.4l-4.8,17.7ZM180.3,27.6h5.7l-6.2-11.6,11.4-10.2h-5.7l-10.3,9.8,2.6-9.8h-4.6l-5.9,21.8h4.6l1.8-6.7,2.2-2,4.3,8.7h0ZM146.9,27.6h15.4l1.1-4h-10.8l1.4-5.1h10.6l1.1-4h-10.6l1.3-4.7h10.8l1.1-4h-15.4l-5.9,21.8h0ZM128.5,27.6h13.9l1.1-4.1h-9.2l4.8-17.7h-4.6s-5.9,21.8-5.9,21.8ZM108.1,27.6h15.4l1.1-4h-10.8l1.4-5.1h10.6l1.1-4h-10.6l1.3-4.7h10.8l1.1-4h-15.4l-5.9,21.8h0Z"/>
  <path class="st1" d="M90.4,27.6h13.9l1.1-4.1h-9.2l4.8-17.7h-4.6s-5.9,21.8-5.9,21.8ZM85,16.7c-1.1,4.1-4.5,7.2-8.6,7.2s-5.8-3.1-4.7-7.2c1.1-4.1,4.5-7.2,8.5-7.2s5.8,3.1,4.7,7.2M67,16.7c-1.8,6.6,1.8,11.3,8.4,11.3s12.7-4.7,14.4-11.3c1.8-6.6-1.8-11.3-8.4-11.3s-12.6,4.7-14.4,11.3M44.5,24.5c1.5,2.1,4.1,3.5,8.3,3.5s9.5-3,10.6-7c1.3-4.8-3-5.9-6.4-6.7-2.4-.6-4.1-1-3.7-2.5.3-1.3,1.7-2.2,3.8-2.2s4.3.8,5.6,2.4l3.5-3.4c-1.6-2-4.2-3-7.7-3-5.1,0-9.1,2.9-10,6.6-1.3,4.9,3,5.9,6.4,6.7,2.4.6,4.1,1.1,3.7,2.8-.3,1.2-1.9,2.4-4.5,2.4s-5-1.3-6.1-2.9l-3.5,3.5h0Z"/>
  <path class="st1" d="M75.3,28.2c-3.2,0-5.8-1.1-7.4-3.2-1.6-2.1-2-5.1-1.1-8.3,1.8-6.6,7.9-11.4,14.6-11.4s5.9,1.1,7.4,3.2c1.6,2.1,2,5.1,1.1,8.3-1.8,6.6-7.9,11.4-14.6,11.4h0ZM67,16.7h.2c-.9,3.2-.5,6.1,1.1,8.1,1.5,2,4,3,7.1,3,6.5,0,12.5-4.7,14.3-11.2.8-3.2.5-6-1.1-8-1.5-2-4-3-7.1-3-6.5,0-12.5,4.7-14.2,11.2h-.2c0,0,0,0,0,0ZM52.8,28.2c-3.9,0-6.8-1.2-8.4-3.5h0c0-.1,3.7-3.9,3.7-3.9v.2c.9,1.1,2.6,2.9,6.1,2.9s4-1.2,4.3-2.3c.1-.4,0-.7,0-1-.4-.8-1.8-1.2-3.5-1.6h-.1c-2.3-.6-4.9-1.2-6.1-3.1-.6-1-.7-2.3-.3-3.7,1.1-4,5.3-6.7,10.2-6.7s6.1,1,7.8,3.1h.1c0,.1-3.7,3.8-3.7,3.8h-.1c-1.2-1.6-3.2-2.5-5.5-2.5s-3.3.8-3.6,2.1c0,.3,0,.6,0,.8.4.7,1.9,1.1,3.5,1.5,2.2.5,5,1.2,6.2,3.2.6,1,.7,2.3.3,3.8-1.2,4.5-5.2,7.1-10.8,7.1h0ZM44.7,24.5c1.6,2.2,4.3,3.3,8.1,3.3,5.4,0,9.3-2.6,10.4-6.9.4-1.4.3-2.6-.3-3.5-1.1-1.8-3.8-2.5-6-3-1.7-.4-3.2-.8-3.7-1.6-.2-.3-.2-.7-.1-1.1.4-1.5,1.9-2.3,4-2.3s4.3.8,5.6,2.3l3.3-3.2c-1.6-1.9-4.1-2.9-7.5-2.9-4.8,0-8.9,2.7-9.9,6.5-.4,1.4-.3,2.6.3,3.5,1,1.8,3.6,2.4,5.8,2.9h.1c1.7.5,3.1.9,3.7,1.8.2.4.3.8.1,1.3-.3,1.3-1.9,2.6-4.6,2.6s-5.3-1.7-6.2-2.9l-3.2,3.3h0ZM104.4,27.8h-14.2l5.9-22.2h5l-4.8,17.7h9.2l-1.2,4.4ZM90.7,27.4h13.5l1-3.7h-9.2l4.8-17.7h-4.3l-5.8,21.5h0ZM76.4,24c-1.8,0-3.3-.6-4.2-1.8-1-1.4-1.3-3.3-.7-5.6,1.1-4.3,4.7-7.3,8.7-7.3s3.3.6,4.2,1.8c1,1.4,1.3,3.3.7,5.6-1.1,4.3-4.7,7.3-8.7,7.3h0ZM80.3,9.7c-3.8,0-7.3,2.9-8.4,7-.6,2.1-.3,4,.6,5.3.8,1.1,2.2,1.7,3.9,1.7,3.8,0,7.3-2.9,8.4-7h.2c0,0-.2,0-.2,0,.6-2.1.3-4-.6-5.3-.8-1.1-2.2-1.7-3.9-1.7h0Z"/>
  <path class="st0" d="M27.2,1.5s-2.6,0-3.2,2.6l-2.4,9.2s-.7,2.6,1.9,2.6h9.4s2.6,0,3.2-2.6l2.4-9.2s.7-2.6-1.9-2.6c0,0-9.4,0-9.4,0Z"/>
  <path class="st1" d="M11.2,1.5s-2.6,0-3.2,2.6l-2.4,9.2s-.7,2.6,1.9,2.6h9.4s2.6,0,3.2-2.6l2.4-9.2s.7-2.6-1.9-2.6c0,0-9.4,0-9.4,0Z"/>
  <path class="st1" d="M23.1,17.3s-2.6,0-3.2,2.6l-2.4,9.2s-.7,2.6,1.9,2.6h9.4s2.6,0,3.2-2.6l2.4-9.2s.7-2.6-1.9-2.6h-9.4Z"/>
  <path class="st1" d="M7.1,17.3s-2.6,0-3.2,2.6l-2.4,9.2s-.7,2.6,1.9,2.6h9.4s2.6,0,3.2-2.6l2.4-9.2s.7-2.6-1.9-2.6H7.1Z"/>
</svg>